<?xml version="1.0" encoding="UTF-8"?>
<svg width="200" height="200" version="1.1" xml:space="preserve" xmlns="http://www.w3.org/2000/svg">
<path d="m67.5 10c-4.16 0-7.5 3.34-7.5 7.5v22.2h-4.16c-8.5 0-15.6 7.15-15.6 15.6v4.16h-22.3c-4.4 0-7.94 3.34-7.94 7.5s3.54 7.5 7.94 7.5h22.3v15h-22.3c-4.4 0-7.94 3.34-7.94 7.5 0 4.16 3.54 7.5 7.94 7.5h22.3v15h-22.3c-4.4 0-7.94 3.34-7.94 7.5s3.54 7.5 7.94 7.5h22.3v4.16c0 8.5 7.15 15.6 15.6 15.6h4.16v23.2c0 4.16 3.34 7.5 7.5 7.5s7.5-3.34 7.5-7.5v-23.2h15v23.2c0 4.16 3.34 7.5 7.5 7.5s7.5-3.34 7.5-7.5v-23.2h15v23.2c0 4.16 3.34 7.5 7.5 7.5s7.5-3.34 7.5-7.5v-23.2h4.16c8.5 0 15.6-7.15 15.6-15.6v-4.16h22.3c4.4 0 7.94-3.34 7.94-7.5s-3.54-7.5-7.94-7.5h-22.3v-15h22.3c4.4 0 7.94-3.34 7.94-7.5 0-4.16-3.54-7.5-7.94-7.5h-22.3v-15h22.3c4.4 0 7.94-3.34 7.94-7.5s-3.54-7.5-7.94-7.5h-22.3v-4.16c0-8.5-7.15-15.6-15.6-15.6h-4.16v-22.2c0-4.16-3.34-7.5-7.5-7.5s-7.5 3.34-7.5 7.5v22.2h-15v-22.2c0-4.16-3.34-7.5-7.5-7.5s-7.5 3.34-7.5 7.5v22.2h-15v-22.2c0-4.16-3.34-7.5-7.5-7.5zm-7.7 49.3h75.4v75.4h-75.4z" fill="#00547f" stroke-linecap="round" stroke-linejoin="round"/></svg>
