<?xml version="1.0" encoding="UTF-8"?>
<svg width="200" height="200" version="1.1" xml:space="preserve" xmlns="http://www.w3.org/2000/svg" xmlns:xlink="http://www.w3.org/1999/xlink"><path d="m57.1 162-12.4 12.4c-4.9 4.9-12.8 4.9-17.7 0-4.9-4.9-4.9-12.8 3e-6 -17.7l12.4-12.4zm81.3-138c-3.92-3.92-10.2-3.92-14.1 1e-6l-28.3 28.3-12.1-12.1c-3.07-3.07-8-3.07-11.1 1e-6l-16.4 16.4c-18.7 18.7-29.3 58.3-1.41 86.3 28 27.9 67.6 17.3 86.3-1.41l16.4-16.4c3.07-3.07 3.07-8 1e-5 -11.1l-12.1-12.1 28.3-28.3c3.92-3.92 3.92-10.2 0-14.1-3.92-3.92-10.2-3.92-14.1-3e-6l-28.3 28.3-21.2-21.2 28.3-28.3c3.92-3.92 3.92-10.2 0-14.1z" fill="#00547f" stroke-linecap="round" stroke-linejoin="round"/></svg>
