<?xml version="1.0" encoding="UTF-8"?>
<svg width="200" height="200" version="1.1" xml:space="preserve" xmlns="http://www.w3.org/2000/svg" xmlns:xlink="http://www.w3.org/1999/xlink"><path d="m44.9 78a60 62 45 0 0 14 60.7 60 62 45 0 0 60.7 14zm97.5-58.1c-3.92-3.92-10.2-3.92-14.1 2e-6l-28.3 28.3-12.1-12.1c-3.07-3.07-8-3.07-11.1-1e-6l-15.7 15.7-30.1-30.1c-2.94-2.94-7.67-2.94-10.6 0-2.94 2.94-2.94 7.67 0 10.6l148 148c2.94 2.94 7.67 2.94 10.6 1e-5 2.94-2.94 2.94-7.67 0-10.6l-33.6-33.6 15.7-15.7c3.07-3.07 3.07-8 1e-5 -11.1l-12.1-12.1 28.3-28.3c3.92-3.92 3.92-10.2 1e-5 -14.1-3.92-3.92-10.2-3.92-14.1-3e-6l-28.3 28.3-21.2-21.2 28.3-28.3c3.92-3.92 3.92-10.2-1e-5 -14.1zm-81.3 138-12.4 12.4c-4.9 4.9-12.8 4.9-17.7 1e-5 -4.9-4.9-4.9-12.8 1e-6 -17.7l12.4-12.4z" fill="#00547f" stroke-linecap="round" stroke-linejoin="round"/></svg>
