<?xml version="1.0" encoding="UTF-8"?>
<svg width="16" height="16" version="1.1" xml:space="preserve" xmlns="http://www.w3.org/2000/svg"><g fill="none" stroke="#00547f" stroke-miterlimit="10" stroke-width="1.25">
<path d="m1.75 9.3c-0.717-3.45 1.5-6.83 4.95-7.55 3.45-0.717 6.83 1.5 7.55 4.95 0.717 3.45-1.5 6.83-4.95 7.55-3.45 0.717-6.83-1.5-7.55-4.95z"/>
<path d="m11.4 7.3c-0.717-3.45-2.84-5.93-4.74-5.53-1.9 0.395-2.86 3.51-2.14 6.96 0.718 3.45 2.84 5.93 4.74 5.54s2.86-3.51 2.14-6.97z"/>
<path d="m6.73 1.91 2.51 12.1"/><path d="m1.75 9.3 12.5-2.6"/></g></svg>
