<?xml version="1.0" encoding="UTF-8"?>
<svg width="200" height="200" version="1.1" xml:space="preserve" xmlns="http://www.w3.org/2000/svg" xmlns:xlink="http://www.w3.org/1999/xlink"><path transform="translate(18.6 .000216)" d="m122 159-47.7-47.7a15.6 15.6 90 0 1 0-22l47.7-47.7a9.53 9.53 22.5 0 1 16.3 6.74v104a9.53 9.53 158 0 1-16.3 6.74z" fill="#00547f"/><path d="m102 38.5c-2.53 2.33e-4 -4.95 1-6.74 2.79l-47.7 47.7c-6.08 6.08-6.08 15.9 0 22l47.7 47.7c6 6 16.3 1.75 16.3-6.74-0.351-2.94-1.96-4.87-3.7-6.7l-34.3-34.3c-6.08-6.08-6.08-15.9 0-22l35.1-35.1c1.85-1.89 2.81-3.85 2.89-5.89 2.4e-4 -5.26-4.27-9.53-9.53-9.53z" fill="#00547f"/></svg>
