<?xml version="1.0" encoding="UTF-8"?>
<svg width="200" height="200" version="1.1" xml:space="preserve" xmlns="http://www.w3.org/2000/svg" xmlns:xlink="http://www.w3.org/1999/xlink"><path d="m130 23.4c0 10.1-8.3 18.3-18.5 18.3-10.2 2e-6 -18.5-8.21-18.5-18.3s8.3-18.3 18.5-18.3c10.2 3.3e-6 18.5 8.21 18.5 18.3zm-55.9 102 14.6 19.1c-2.04 8.64-5.39 16.3-10.5 22.7l-19.7 25c-6.2 7.59-18.2-0.768-12.8-9.69l21.4-31.3zm4.27-25c-1.18 5.89-1.23 11.8 3 18l47 73c4.72 7.52 21.3 3.38 16-10l-40-67 6-26 7 10 32 15c7.8 3.34 15.2-8.23 7.2-12.6l-28-14-17-35c-1.89-3.72-25.6-3.89-30.5 0.2l-22 19c-2.95 2.4-5.43 5.43-6 11l-5 31c-1.13 9.55 12.7 11.7 14.3 2.4l5-29 16-12z" fill="#00547f" stroke-linecap="round" stroke-linejoin="round" stroke-width="1.04"/></svg>
